<svg width="240" height="59" viewBox="0 0 240 59" fill="none" xmlns="http://www.w3.org/2000/svg">
<rect y="0.0893555" width="240" height="58" rx="29" fill="#28282A"/>
<path d="M37.0273 37.0894H34.6934V25.1655H28.0527V37.0894H25.7285V23.0854H37.0273V37.0894ZM42.5059 35.6147H42.4668V41.689H40.2012V27.0894H42.4668V28.8472H42.5059C43.2806 27.519 44.4134 26.855 45.9043 26.855C47.1738 26.855 48.1634 27.3009 48.873 28.1929C49.5827 29.0848 49.9375 30.2827 49.9375 31.7866C49.9375 33.4533 49.5371 34.7879 48.7363 35.7905C47.9355 36.7931 46.8418 37.2944 45.4551 37.2944C44.179 37.2944 43.196 36.7345 42.5059 35.6147ZM42.4473 31.6694V32.9097C42.4473 33.6388 42.6784 34.2573 43.1406 34.7651C43.6094 35.2729 44.2018 35.5269 44.918 35.5269C45.7578 35.5269 46.4154 35.2013 46.8906 34.5503C47.3724 33.8927 47.6133 32.978 47.6133 31.8062C47.6133 30.8231 47.3887 30.0549 46.9395 29.5015C46.4967 28.9416 45.8945 28.6616 45.1328 28.6616C44.3255 28.6616 43.6745 28.9481 43.1797 29.521C42.6914 30.0939 42.4473 30.8101 42.4473 31.6694ZM56.6855 37.3237C55.1426 37.3237 53.9089 36.8582 52.9844 35.9272C52.0664 34.9897 51.6074 33.7495 51.6074 32.2065C51.6074 30.5269 52.0859 29.215 53.043 28.271C54.0065 27.327 55.3021 26.855 56.9297 26.855C58.4922 26.855 59.7096 27.314 60.582 28.2319C61.4544 29.1499 61.8906 30.4227 61.8906 32.0503C61.8906 33.6453 61.4186 34.9246 60.4746 35.8882C59.5371 36.8452 58.2741 37.3237 56.6855 37.3237ZM56.793 28.6616C55.9076 28.6616 55.2077 28.9709 54.6934 29.5894C54.179 30.2078 53.9219 31.0607 53.9219 32.1479C53.9219 33.1961 54.1823 34.0229 54.7031 34.6284C55.224 35.2274 55.9206 35.5269 56.793 35.5269C57.6849 35.5269 58.3685 35.2306 58.8438 34.6382C59.3255 34.0457 59.5664 33.2026 59.5664 32.1089C59.5664 31.0086 59.3255 30.159 58.8438 29.5601C58.3685 28.9611 57.6849 28.6616 56.793 28.6616ZM73.2871 37.0894H70.4062L66.5195 32.2163H66.4805V37.0894H64.2051V27.0894H66.4805V31.689H66.5195L70.1914 27.0894H72.9648L68.8047 31.855L73.2871 37.0894ZM83.3555 37.0894H81.0801V28.8179H79.0391C78.7526 31.9103 78.2611 34.0848 77.5645 35.3413C76.8743 36.5913 75.9434 37.2163 74.7715 37.2163C74.3809 37.2163 74.0456 37.161 73.7656 37.0503V35.3608C73.9935 35.4715 74.2376 35.5269 74.498 35.5269C75.8978 35.5269 76.7962 32.7144 77.1934 27.0894H83.3555V37.0894ZM93.9902 37.0894H91.793V35.5269H91.7539C91.0638 36.7248 90.0514 37.3237 88.7168 37.3237C87.7337 37.3237 86.9622 37.0568 86.4023 36.5229C85.849 35.9891 85.5723 35.2827 85.5723 34.4038C85.5723 32.5158 86.6595 31.4155 88.834 31.103L91.8027 30.6831C91.8027 29.2573 91.1257 28.5444 89.7715 28.5444C88.5801 28.5444 87.5059 28.9546 86.5488 29.7749V27.7925C87.6035 27.1675 88.821 26.855 90.2012 26.855C92.7272 26.855 93.9902 28.0985 93.9902 30.5854V37.0894ZM91.8027 32.1772L89.7031 32.4702C89.0521 32.5549 88.5605 32.7144 88.2285 32.9487C87.903 33.1766 87.7402 33.5802 87.7402 34.1597C87.7402 34.5828 87.89 34.9312 88.1895 35.2046C88.4954 35.4715 88.9023 35.605 89.4102 35.605C90.1003 35.605 90.6699 35.3641 91.1191 34.8823C91.5749 34.394 91.8027 33.7821 91.8027 33.0464V32.1772ZM103.922 36.6304C103.121 37.0926 102.174 37.3237 101.08 37.3237C99.5957 37.3237 98.3978 36.8615 97.4863 35.937C96.5749 35.006 96.1191 33.8016 96.1191 32.3237C96.1191 30.6766 96.6074 29.355 97.584 28.3589C98.5671 27.3563 99.8789 26.855 101.52 26.855C102.431 26.855 103.235 27.0145 103.932 27.3335V29.4429C103.235 28.922 102.493 28.6616 101.705 28.6616C100.748 28.6616 99.9635 28.9871 99.3516 29.6382C98.7396 30.2827 98.4336 31.1291 98.4336 32.1772C98.4336 33.2124 98.7201 34.0295 99.293 34.6284C99.8724 35.2274 100.647 35.5269 101.617 35.5269C102.431 35.5269 103.199 35.2371 103.922 34.6577V36.6304ZM112.994 28.896H110.143V37.0894H107.867V28.896H104.996V27.0894H112.994V28.896ZM123.873 37.0894H121.822V29.7554C121.692 30.0158 121.493 30.3771 121.227 30.8394L117.018 37.0894H114.791V27.0894H116.871V34.2769C116.943 34.1076 117.096 33.8146 117.33 33.3979L121.598 27.0894H123.873V37.0894ZM144.117 37.0894H141.949V29.0815C141.819 29.4852 141.62 30.0809 141.354 30.8687L139.098 37.0894H137.086L134.791 30.8491C134.667 30.5106 134.469 29.9149 134.195 29.062V37.0894H132.35V27.0894H135.299L137.594 33.2612C137.757 33.7104 137.965 34.3322 138.219 35.1265L138.844 33.3003L141.09 27.0894H144.117V37.0894ZM154.752 37.0894H152.555V35.5269H152.516C151.826 36.7248 150.813 37.3237 149.479 37.3237C148.495 37.3237 147.724 37.0568 147.164 36.5229C146.611 35.9891 146.334 35.2827 146.334 34.4038C146.334 32.5158 147.421 31.4155 149.596 31.103L152.564 30.6831C152.564 29.2573 151.887 28.5444 150.533 28.5444C149.342 28.5444 148.268 28.9546 147.311 29.7749V27.7925C148.365 27.1675 149.583 26.855 150.963 26.855C153.489 26.855 154.752 28.0985 154.752 30.5854V37.0894ZM152.564 32.1772L150.465 32.4702C149.814 32.5549 149.322 32.7144 148.99 32.9487C148.665 33.1766 148.502 33.5802 148.502 34.1597C148.502 34.5828 148.652 34.9312 148.951 35.2046C149.257 35.4715 149.664 35.605 150.172 35.605C150.862 35.605 151.432 35.3641 151.881 34.8823C152.337 34.394 152.564 33.7821 152.564 33.0464V32.1772ZM159.83 35.6147H159.791V41.689H157.525V27.0894H159.791V28.8472H159.83C160.605 27.519 161.738 26.855 163.229 26.855C164.498 26.855 165.488 27.3009 166.197 28.1929C166.907 29.0848 167.262 30.2827 167.262 31.7866C167.262 33.4533 166.861 34.7879 166.061 35.7905C165.26 36.7931 164.166 37.2944 162.779 37.2944C161.503 37.2944 160.52 36.7345 159.83 35.6147ZM159.771 31.6694V32.9097C159.771 33.6388 160.003 34.2573 160.465 34.7651C160.934 35.2729 161.526 35.5269 162.242 35.5269C163.082 35.5269 163.74 35.2013 164.215 34.5503C164.697 33.8927 164.938 32.978 164.938 31.8062C164.938 30.8231 164.713 30.0549 164.264 29.5015C163.821 28.9416 163.219 28.6616 162.457 28.6616C161.65 28.6616 160.999 28.9481 160.504 29.521C160.016 30.0939 159.771 30.8101 159.771 31.6694ZM183.18 37.0894H169.576V27.0894H171.852V35.3608H175.24V27.0894H177.516V35.3608H180.904V27.0894H183.18V37.0894ZM188.443 35.6147H188.404V41.689H186.139V27.0894H188.404V28.8472H188.443C189.218 27.519 190.351 26.855 191.842 26.855C193.111 26.855 194.101 27.3009 194.811 28.1929C195.52 29.0848 195.875 30.2827 195.875 31.7866C195.875 33.4533 195.475 34.7879 194.674 35.7905C193.873 36.7931 192.779 37.2944 191.393 37.2944C190.117 37.2944 189.133 36.7345 188.443 35.6147ZM188.385 31.6694V32.9097C188.385 33.6388 188.616 34.2573 189.078 34.7651C189.547 35.2729 190.139 35.5269 190.855 35.5269C191.695 35.5269 192.353 35.2013 192.828 34.5503C193.31 33.8927 193.551 32.978 193.551 31.8062C193.551 30.8231 193.326 30.0549 192.877 29.5015C192.434 28.9416 191.832 28.6616 191.07 28.6616C190.263 28.6616 189.612 28.9481 189.117 29.521C188.629 30.0939 188.385 30.8101 188.385 31.6694ZM206.852 27.0894L202.34 38.6909C201.402 40.7612 200.087 41.7964 198.395 41.7964C197.919 41.7964 197.522 41.7541 197.203 41.6694V39.7847C197.561 39.9019 197.887 39.9604 198.18 39.9604C199.026 39.9604 199.658 39.5438 200.074 38.7104L200.748 37.0698L196.773 27.0894H199.283L201.666 34.355C201.692 34.4461 201.751 34.687 201.842 35.0776H201.891C201.923 34.9279 201.982 34.6935 202.066 34.3745L204.566 27.0894H206.852ZM215.553 28.896H212.701V37.0894H210.426V28.896H207.555V27.0894H215.553V28.896Z" fill="#F2EDDB"/>
</svg>
