<svg width="287" height="266" viewBox="0 0 287 266" fill="none" xmlns="http://www.w3.org/2000/svg">
<rect width="287" height="169.09" fill="#7F855D"/>
<path d="M51.4961 20H54.3761V39.1949H65.7179V20H68.6127V39.1949H70.6019V47.8052H68.0486V41.7632H51.4961V20Z" fill="white"/>
<path d="M84.4377 36.6861L87.1989 37.0275C86.7635 38.6407 85.9569 39.8927 84.7792 40.7834C83.6014 41.6741 82.0971 42.1194 80.2662 42.1194C77.9602 42.1194 76.1293 41.4118 74.7735 39.9966C73.4275 38.5714 72.7545 36.5772 72.7545 34.0139C72.7545 31.3616 73.4374 29.303 74.8032 27.8383C76.1689 26.3736 77.9405 25.6412 80.1178 25.6412C82.2258 25.6412 83.9478 26.3587 85.2839 27.7938C86.62 29.2288 87.288 31.2478 87.288 33.8506C87.288 34.009 87.2831 34.2465 87.2732 34.5632H75.5157C75.6147 36.2951 76.1046 37.6213 76.9854 38.5417C77.8662 39.4621 78.9648 39.9223 80.2811 39.9223C81.2608 39.9223 82.0971 39.665 82.7899 39.1504C83.4827 38.6358 84.032 37.8143 84.4377 36.6861ZM75.6642 32.3661H84.4674C84.3487 31.0399 84.0122 30.0453 83.4579 29.3822C82.6068 28.3529 81.5033 27.8383 80.1474 27.8383C78.9202 27.8383 77.886 28.249 77.0448 29.0705C76.2135 29.8919 75.7533 30.9904 75.6642 32.3661Z" fill="white"/>
<path d="M90.5837 25.9975H93.2558V32.5591H100.664V25.9975H103.336V41.7632H100.664V34.771H93.2558V41.7632H90.5837V25.9975Z" fill="white"/>
<path d="M105.934 25.9975H118.745V28.2094H113.668V41.7632H111.011V28.2094H105.934V25.9975Z" fill="white"/>
<path d="M121.299 47.8052V25.9975H123.733V28.0461C124.307 27.2445 124.955 26.6457 125.678 26.2499C126.4 25.8441 127.276 25.6412 128.305 25.6412C129.651 25.6412 130.839 25.9876 131.868 26.6804C132.898 27.3731 133.675 28.3529 134.199 29.6197C134.724 30.8766 134.986 32.2572 134.986 33.7616C134.986 35.3747 134.694 36.8296 134.11 38.1261C133.536 39.4127 132.695 40.4023 131.586 41.0951C130.488 41.778 129.33 42.1194 128.112 42.1194C127.222 42.1194 126.42 41.9314 125.708 41.5553C125.005 41.1792 124.426 40.7042 123.971 40.1302V47.8052H121.299ZM123.718 33.9694C123.718 35.9982 124.129 37.4976 124.95 38.4675C125.772 39.4374 126.767 39.9223 127.934 39.9223C129.122 39.9223 130.136 39.4226 130.978 38.423C131.829 37.4135 132.254 35.8547 132.254 33.7467C132.254 31.7377 131.839 30.2333 131.007 29.2338C130.186 28.2342 129.201 27.7344 128.053 27.7344C126.915 27.7344 125.905 28.2688 125.025 29.3377C124.154 30.3966 123.718 31.9405 123.718 33.9694Z" fill="white"/>
<path d="M148.51 39.8184C147.52 40.6597 146.565 41.2535 145.645 41.5999C144.734 41.9462 143.754 42.1194 142.705 42.1194C140.973 42.1194 139.642 41.6988 138.712 40.8576C137.782 40.0065 137.317 38.9228 137.317 37.6065C137.317 36.8345 137.49 36.1319 137.836 35.4985C138.192 34.8552 138.653 34.3405 139.217 33.9545C139.791 33.5686 140.434 33.2766 141.147 33.0787C141.671 32.9401 142.463 32.8065 143.522 32.6779C145.679 32.4205 147.268 32.1137 148.287 31.7574C148.297 31.3913 148.302 31.1587 148.302 31.0597C148.302 29.9711 148.05 29.2041 147.545 28.7587C146.862 28.155 145.848 27.8531 144.502 27.8531C143.245 27.8531 142.314 28.0758 141.711 28.5212C141.117 28.9566 140.677 29.7335 140.39 30.8519L137.777 30.4956C138.014 29.3773 138.405 28.4766 138.95 27.7938C139.494 27.101 140.281 26.5715 141.31 26.2053C142.339 25.8292 143.532 25.6412 144.888 25.6412C146.234 25.6412 147.327 25.7995 148.168 26.1162C149.01 26.4329 149.628 26.8338 150.024 27.3187C150.42 27.7938 150.697 28.3975 150.855 29.1298C150.945 29.5851 150.989 30.4065 150.989 31.5941V35.157C150.989 37.6411 151.043 39.2147 151.152 39.8778C151.271 40.531 151.499 41.1594 151.835 41.7632H149.044C148.767 41.2089 148.589 40.5607 148.51 39.8184ZM148.287 33.8506C147.317 34.2465 145.862 34.583 143.923 34.8601C142.824 35.0185 142.047 35.1966 141.592 35.3945C141.137 35.5925 140.785 35.8844 140.538 36.2704C140.291 36.6465 140.167 37.0671 140.167 37.5323C140.167 38.2448 140.434 38.8386 140.968 39.3137C141.513 39.7887 142.305 40.0263 143.344 40.0263C144.373 40.0263 145.288 39.8036 146.09 39.3582C146.892 38.903 147.481 38.2844 147.857 37.5026C148.144 36.8989 148.287 36.0081 148.287 34.8304V33.8506Z" fill="white"/>
<path d="M156.452 25.9975H168.863V41.7632H166.205V28.2094H159.124V36.0626C159.124 37.8935 159.065 39.1009 158.946 39.6848C158.827 40.2687 158.501 40.7784 157.966 41.2139C157.432 41.6493 156.66 41.8671 155.65 41.8671C155.027 41.8671 154.309 41.8275 153.498 41.7483V39.5215H154.671C155.225 39.5215 155.621 39.4671 155.858 39.3582C156.096 39.2395 156.254 39.0564 156.333 38.8089C156.413 38.5615 156.452 37.7549 156.452 36.3892V25.9975Z" fill="white"/>
<path d="M172.856 25.9975H175.528V32.1583H178.913C181.12 32.1583 182.817 32.5888 184.005 33.4498C185.202 34.3009 185.801 35.4787 185.801 36.983C185.801 38.2993 185.301 39.4275 184.302 40.3677C183.312 41.298 181.724 41.7632 179.536 41.7632H172.856V25.9975ZM175.528 39.5661H178.334C180.026 39.5661 181.234 39.3582 181.956 38.9426C182.679 38.5269 183.04 37.8786 183.04 36.9978C183.04 36.3149 182.773 35.7063 182.238 35.1719C181.704 34.6374 180.521 34.3702 178.69 34.3702H175.528V39.5661Z" fill="white"/>
<path d="M188.77 25.9975H191.442V32.5591H198.85V25.9975H201.522V41.7632H198.85V34.771H191.442V41.7632H188.77V25.9975Z" fill="white"/>
<path d="M205.56 25.9975H208.232V38.0221L215.64 25.9975H218.52V41.7632H215.848V29.8127L208.44 41.7632H205.56V25.9975Z" fill="white"/>
<path d="M222.543 25.9975H225.215V38.0221L232.623 25.9975H235.503V41.7632H232.831V29.8127L225.423 41.7632H222.543V25.9975ZM231.821 20.0297H233.647C233.499 21.2668 233.044 22.2169 232.282 22.88C231.53 23.5431 230.525 23.8746 229.268 23.8746C228.001 23.8746 226.987 23.548 226.225 22.8948C225.473 22.2317 225.022 21.2767 224.874 20.0297H226.7C226.838 20.7027 227.111 21.2074 227.516 21.5439C227.932 21.8705 228.486 22.0338 229.179 22.0338C229.981 22.0338 230.584 21.8755 230.99 21.5588C231.406 21.2322 231.683 20.7225 231.821 20.0297Z" fill="white"/>
<path d="M51.5 98.1291V58.4813H63.9946C68.7295 58.4813 71.8158 58.6796 73.2538 59.0763C75.4634 59.6713 77.3135 60.9694 78.8041 62.9707C80.2947 64.954 81.04 67.5233 81.04 70.6785C81.04 73.1126 80.6103 75.159 79.751 76.8177C78.8918 78.4765 77.7957 79.7836 76.463 80.7392C75.1477 81.6768 73.8062 82.2988 72.4384 82.6053C70.5795 82.9839 67.8877 83.1733 64.3629 83.1733H59.2861V98.1291H51.5ZM59.2861 65.1884V76.4391H63.5475C66.6163 76.4391 68.6681 76.2317 69.7027 75.817C70.7374 75.4024 71.544 74.7533 72.1227 73.8698C72.719 72.9864 73.0171 71.9587 73.0171 70.7867C73.0171 69.3443 72.605 68.1543 71.7808 67.2168C70.9566 66.2792 69.9132 65.6933 68.6505 65.4589C67.7211 65.2786 65.8535 65.1884 63.0477 65.1884H59.2861Z" fill="white"/>
<path d="M87.5372 58.4813H94.8235V84.8771L110.448 58.4813H118.208V98.1291H110.922V72.2471L95.3233 98.1291H87.5372V58.4813Z" fill="white"/>
<path d="M126.178 98.1291V58.4813H133.965V74.0862H149.221V58.4813H157.007V98.1291H149.221V80.7933H133.965V98.1291H126.178Z" fill="white"/>
<path d="M163.505 78.5486C163.505 74.5099 164.092 71.1203 165.267 68.3797C166.144 66.3604 167.336 64.5484 168.844 62.9437C170.37 61.339 172.036 60.1491 173.842 59.3738C176.245 58.328 179.015 57.8052 182.154 57.8052C187.836 57.8052 192.378 59.6172 195.78 63.2412C199.2 66.8652 200.91 71.9046 200.91 78.3593C200.91 84.7599 199.217 89.7722 195.833 93.3962C192.448 97.0022 187.924 98.8052 182.26 98.8052C176.525 98.8052 171.966 97.0112 168.581 93.4233C165.197 89.8173 163.505 84.859 163.505 78.5486ZM171.527 78.2781C171.527 82.7676 172.536 86.1752 174.552 88.5011C176.569 90.8089 179.129 91.9628 182.233 91.9628C185.337 91.9628 187.88 90.8179 189.862 88.5281C191.861 86.2203 192.86 82.7676 192.86 78.17C192.86 73.6264 191.887 70.2368 189.941 68.0011C188.012 65.7654 185.443 64.6475 182.233 64.6475C179.024 64.6475 176.438 65.7834 174.474 68.0552C172.509 70.3089 171.527 73.7166 171.527 78.2781Z" fill="white"/>
<path d="M207.144 58.4813H214.93V75.3573C216.666 75.177 217.841 74.7172 218.455 73.978C219.068 73.2388 220.015 71.1834 221.296 67.8118C222.909 63.5207 224.531 60.8522 226.162 59.8065C227.775 58.7608 230.379 58.2379 233.974 58.2379C234.15 58.2379 234.527 58.2289 235.105 58.2108V64.1337L234.001 64.1066C232.405 64.1066 231.239 64.314 230.502 64.7287C229.766 65.1253 229.169 65.7383 228.713 66.5677C228.257 67.3971 227.582 69.1009 226.688 71.6792C226.215 73.0495 225.697 74.1944 225.136 75.1139C224.592 76.0334 223.619 76.8988 222.216 77.7102C223.952 78.215 225.382 79.2337 226.504 80.7663C227.644 82.2988 228.889 84.4624 230.239 87.257L235.5 98.1291H226.346L221.743 87.8791C221.673 87.7348 221.524 87.4554 221.296 87.0407C221.208 86.8964 220.883 86.2744 220.322 85.1746C219.323 83.2273 218.499 82.0103 217.85 81.5235C217.218 81.0367 216.245 80.7843 214.93 80.7663V98.1291H207.144V58.4813Z" fill="white"/>
<path d="M51.5 149.09V108.805H59.6338V149.09H51.5Z" fill="white"/>
<path d="M67.4104 149.09V108.805H80.463C85.4092 108.805 88.6334 109.007 90.1356 109.41C92.4438 110.014 94.3765 111.333 95.9337 113.367C97.4908 115.382 98.2694 117.992 98.2694 121.198C98.2694 123.671 97.8206 125.751 96.9229 127.436C96.0253 129.121 94.8803 130.45 93.4881 131.42C92.1141 132.373 90.7127 133.005 89.2838 133.317C87.3419 133.701 84.5299 133.894 80.8477 133.894H75.5442V149.09H67.4104ZM75.5442 115.62V127.051H79.9958C83.2017 127.051 85.3451 126.841 86.4259 126.419C87.5068 125.998 88.3495 125.338 88.954 124.441C89.5769 123.543 89.8883 122.499 89.8883 121.308C89.8883 119.843 89.4578 118.634 88.5968 117.681C87.7358 116.728 86.6458 116.133 85.3268 115.895C84.3558 115.712 82.4048 115.62 79.4737 115.62H75.5442Z" fill="white"/>
<path d="M105.057 108.805H137.097V149.09H128.964V115.565H113.191V149.09H105.057V108.805Z" fill="white"/>
<path d="M145.149 149.09V108.805H153.283V149.09H145.149Z" fill="white"/>
<path d="M161.087 149.09V108.805H169.22V124.661H185.158V108.805H193.292V149.09H185.158V131.475H169.22V149.09H161.087Z" fill="white"/>
<path d="M201.893 108.805H210.027V124.908H220.909C226.038 124.908 229.748 126.108 232.038 128.508C234.346 130.908 235.5 133.784 235.5 137.136C235.5 139.884 234.804 142.22 233.412 144.143C232.019 146.067 230.426 147.377 228.63 148.073C226.853 148.751 224.279 149.09 220.909 149.09H201.893V108.805ZM210.027 142.33H217.941C220.506 142.33 222.283 142.211 223.272 141.972C224.261 141.716 225.14 141.148 225.91 140.269C226.698 139.389 227.091 138.309 227.091 137.026C227.091 135.176 226.423 133.82 225.085 132.959C223.766 132.098 221.504 131.668 218.298 131.668H210.027V142.33Z" fill="white"/>
<path d="M143 169L128 169L143 184L158 169L143 169Z" fill="#7F855D"/>
<circle cx="143.5" cy="237.09" r="28" fill="#7F855D"/>
<circle cx="143.5" cy="237.09" r="28" fill="white"/>
<circle cx="143.5" cy="237.09" r="24" fill="#7F855D"/>
<circle cx="143.5" cy="237.09" r="4" fill="white"/>
</svg>
