<svg xmlns="http://www.w3.org/2000/svg" width="117" height="77" fill="none" viewBox="0 0 117 77">
  <g class="Frame 10">
    <g class="Frame 6">
      <path fill="#fff" fill-rule="evenodd" d="m58.513 3.46-.707-.706a5.992 5.992 0 0 0-9.146 7.674 7.054 7.054 0 0 1 .875.768l8.973 8.973.006-.005.005.005 8.973-8.973a7.035 7.035 0 0 1 .876-.769 5.994 5.994 0 0 0-9.146-7.673l-.707.706h-.002ZM69.97 9.541a6.993 6.993 0 0 0-11.455-7.495h-.002a6.992 6.992 0 0 0-11.455 7.496 6.994 6.994 0 0 0-7.5 11.452l.004.003V21a6.992 6.992 0 0 0 7.49 11.458 6.994 6.994 0 0 0 11.46 7.482h.003a6.992 6.992 0 0 0 11.46-7.481 6.994 6.994 0 0 0 7.493-11.456L77.466 21h-.001v-.002A6.992 6.992 0 0 0 69.97 9.54Zm-.867 21.325a7.054 7.054 0 0 0-.813-.927l-8.947-8.947 8.947-8.947c.037-.036.075-.072.112-.11.25-.25.478-.515.683-.792a5.994 5.994 0 0 1 7.673 9.147l-.707.708-.001.002.708.707a5.992 5.992 0 0 1-7.655 9.159Zm-10.59-9.044 8.979 8.979a6.995 6.995 0 0 0 .893.781 5.994 5.994 0 0 1-9.163 7.65l-.707-.707h-.002l-.707.706a5.992 5.992 0 0 1-9.163-7.65 7.052 7.052 0 0 0 .892-.78l8.979-8.979ZM40.27 11.816a5.994 5.994 0 0 1 7.674-.672 7.05 7.05 0 0 0 .795.902l8.947 8.947-8.947 8.947a7.053 7.053 0 0 0-.812.925 5.994 5.994 0 0 1-7.657-9.158l.707-.708.001-.002-.708-.707a5.992 5.992 0 0 1 0-8.474Z" class="Union" clip-rule="evenodd"/>
    </g>
    <path fill="#fff" d="M25.334 72.96h.08c-.6 1.18-2.72 3.32-6.42 3.32-3.26 0-5.46-1.72-7.54-4.44-.76.3-1.62.44-2.58.44-4.1 0-7.46-2.78-7.46-7.28s3.36-7.28 7.56-7.28c4.28 0 7.5 2.8 7.5 7.16 0 2.96-1.54 4.56-3.16 5.28l-.08-.1c.68-.66 1.1-2.18 1.1-3.84 0-4.06-2.44-8.14-6.16-8.14-2.78 0-4.6 2.34-4.6 5.72 0 2.74 1.18 5.5 3.08 7 .06-.44.48-.9.84-1.26l2.26-2.26c.5-.16 1 .06 1.66.98l2.24 3.12c1.88 2.62 4.24 4.12 6.8 4.12 1.74 0 3.62-.68 4.88-2.54Zm-15.58-1.04c.56 0 1.08-.1 1.54-.28l-.06-.08-1.2-1.62c-.96-1.28-1.54-1.04-2.12-.52-.84.76-.94 1.6-.26 2 .64.32 1.34.5 2.1.5Zm18.134-.56c.28.18.8.32 1.12.36v.08l-2.96.3v-1.92c-1.06.8-2.62 1.96-4.5 1.96-1.2 0-2.76-.62-2.76-3.64v-4.3c0-1.08-.18-1.46-1.08-1.86v-.04h3.04l-.12 1.38v4.78c0 2.28 1.12 2.82 2.06 2.82 1.36 0 2.36-.78 3.36-1.54V64.2c0-1.08-.18-1.46-1.08-1.86v-.04h3.04l-.12 1.38v7.68Zm11.54-1c0 1.08.18 1.42.78 1.82v.06l-3.12-.62s.02 0 .02-.02c-.64.34-1.44.54-2.38.54-2.78 0-4.82-1.7-4.82-4.6 0-2.88 2.04-5.36 6.2-5.36 1.28 0 2.32.24 3.32.74v7.44Zm-7.58-3.9c0 2.86 1.74 5.12 4.04 5.12.78 0 1.26-.26 1.66-.7.02-.2.04-.46.04-.78v-6.44c-.6-.64-1.38-1.1-2.48-1.1-2.06 0-3.26 1.54-3.26 3.9Zm19.279 3.9c0 1.08.18 1.42.78 1.82v.06l-3.12-.62s.02 0 .02-.02c-.64.34-1.44.54-2.38.54-2.78 0-4.82-1.7-4.82-4.6 0-2.88 2.04-5.36 6.2-5.36.52 0 1.02.04 1.48.12v-3.48c0-.8-.38-.7-1.62-.32v-.12l3.56-1.68-.1.78v12.88Zm-7.58-3.9c0 2.86 1.74 5.12 4.04 5.12.78 0 1.26-.26 1.66-.7.02-.2.04-.46.04-.78v-6.44c-.6-.64-1.38-1.1-2.48-1.1-2.06 0-3.26 1.54-3.26 3.9Zm15.497-4.26c.36 0 .68.06 1.06.24l-1.72 2.8h-.08c.54-1.34.06-1.92-.58-1.92-1.02 0-1.66 1.28-1.86 2.68v4.14c0 1.08.18 1.46.78 1.86h-2.72l.1-1.38v-7.68c-.28-.18-.8-.32-1.22-.36v-.08l3.16-.3-.1 1.48v.64h.26c.46-1.28 1.58-2.12 2.92-2.12Zm3.573-2.08c-.66 0-1.16-.5-1.16-1.16 0-.64.5-1.14 1.16-1.14.64 0 1.14.5 1.14 1.14 0 .66-.5 1.16-1.14 1.16ZM61.697 72l.12-1.38v-7.68c-.28-.18-.8-.32-1.22-.36v-.08l3.16-.3-.1 1.48v6.46c0 1.08.18 1.46.78 1.86h-2.74Zm10.828-15.38c.82 0 1.8.16 3.44.96l-1.6 1.4c-.76-.8-2.18-1.7-3.42-1.7-1.62 0-2.24 1.5-2.24 3.92v1.1h3.24l-.1.48h-3.14v7.28c0 1.08.14 1.64 1.34 1.86V72h-3.5l.32-1.24v-7.1c0-.92-.58-.88-1.52-.88l.1-.48h1.42v-.48c0-3.3 2.82-5.2 5.66-5.2Zm4.73 5.56c3.04 0 5.18 2.02 5.18 4.98 0 2.94-2.14 4.98-5.18 4.98-3.04 0-5.18-2.02-5.18-4.98 0-2.94 2.14-4.98 5.18-4.98Zm.78 9.62c1.58 0 2.52-1.26 2.52-3.34 0-2.76-1.6-5.94-4.08-5.94-1.58 0-2.52 1.26-2.52 3.34 0 2.76 1.6 5.94 4.08 5.94Zm12.194-9.62c1.28 0 2.32.24 3.32.74v10.12c0 .98-3.48 3.14-5.5 3.14-.88 0-2.32-.4-3.14-1.88l1.9-.56c.82 1.68 2.08 1.76 2.66 1.76 1.3 0 2.24-1.18 2.24-2.48V71.3c-.68.52-1.66.84-2.86.84-2.78 0-4.82-1.7-4.82-4.6 0-2.88 2.04-5.36 6.2-5.36Zm-.22 9.38c.82 0 1.32-.28 1.7-.76v-7.14c-.6-.64-1.38-1.1-2.48-1.1-2.06 0-3.26 1.54-3.26 3.9 0 2.86 1.74 5.1 4.04 5.1Zm7.905-1.5c0 1.08.14 1.64 1.14 1.86V72h-3.16l.18-1.24V58.82c0-.8-.38-.7-1.62-.32v-.12l3.56-1.68-.1.78v12.58Zm3.667-9.94c-.66 0-1.16-.5-1.16-1.16 0-.64.5-1.14 1.16-1.14.64 0 1.14.5 1.14 1.14 0 .66-.5 1.16-1.14 1.16Zm-.92 11.88.12-1.38v-7.68c-.28-.18-.8-.32-1.22-.36v-.08l3.16-.3-.1 1.48v6.46c0 1.08.18 1.46.78 1.86h-2.74Zm9.133-9.82c3.04 0 5.18 2.02 5.18 4.98 0 2.94-2.14 4.98-5.18 4.98-3.04 0-5.18-2.02-5.18-4.98 0-2.94 2.14-4.98 5.18-4.98Zm.78 9.62c1.58 0 2.52-1.26 2.52-3.34 0-2.76-1.6-5.94-4.08-5.94-1.58 0-2.52 1.26-2.52 3.34 0 2.76 1.6 5.94 4.08 5.94Z" class="Quadrifoglio"/>
  </g>
</svg>
